<svg width="75" height="53" viewBox="0 0 75 53" fill="none" xmlns="http://www.w3.org/2000/svg">
<mask id="mask0" mask-type="alpha" maskUnits="userSpaceOnUse" x="0" y="0" width="75" height="53">
<path d="M67.8211 0H7.42631C3.50218 0 0.321045 3.16385 0.321045 7.06667V45.9333C0.321045 49.8361 3.50218 53 7.42631 53H67.8211C71.7452 53 74.9264 49.8361 74.9264 45.9333V7.06667C74.9264 3.16385 71.7452 0 67.8211 0Z" fill="white"/>
</mask>
<g mask="url(#mask0)">
<path d="M67.8211 0H7.42631C3.50218 0 0.321045 3.16385 0.321045 7.06667V45.9333C0.321045 49.8361 3.50218 53 7.42631 53H67.8211C71.7452 53 74.9264 49.8361 74.9264 45.9333V7.06667C74.9264 3.16385 71.7452 0 67.8211 0Z" fill="white"/>
<path d="M46.5053 0H28.7421V53H46.5053V0Z" fill="#DC171D"/>
<path d="M74.9264 17.6666H0.321045V35.3333H74.9264V17.6666Z" fill="#012A87"/>
<path d="M28.7421 24.7333H25.1895V28.2666H28.7421V24.7333Z" fill="white"/>
<path d="M35.8474 28.2667H32.2947V31.8001H35.8474V28.2667Z" fill="white"/>
<path d="M42.9527 28.2667H39.4V31.8001H42.9527V28.2667Z" fill="white"/>
<path d="M50.0579 24.7333H46.5053V28.2666H50.0579V24.7333Z" fill="white"/>
<path d="M39.4001 21.2H35.8474V24.7333H39.4001V21.2Z" fill="white"/>
<path d="M67.8211 1.76672H7.4263C4.4832 1.76672 2.09735 4.13961 2.09735 7.06672V45.9334C2.09735 48.8605 4.4832 51.2334 7.4263 51.2334H67.8211C70.7642 51.2334 73.15 48.8605 73.15 45.9334V7.06672C73.15 4.13961 70.7642 1.76672 67.8211 1.76672Z" stroke="black" stroke-opacity="0.1"/>
</g>
</svg>
